<mxfile host="app.diagrams.net" agent="Mozilla/5.0 (Windows NT 10.0; Win64; x64) AppleWebKit/537.36 (KHTML, like Gecko) Chrome/130.0.0.0 Safari/537.36" version="24.8.4">
  <diagram name="Page-1" id="YhIZirmxtG8EMKiJ8WyT">
    <mxGraphModel dx="1361" dy="699" grid="1" gridSize="10" guides="1" tooltips="1" connect="1" arrows="1" fold="1" page="1" pageScale="1" pageWidth="827" pageHeight="1169" math="0" shadow="0">
      <root>
        <mxCell id="0" />
        <mxCell id="1" parent="0" />
        <mxCell id="YhDnHm-8JCX_9w6hxJCG-3" value="" style="edgeStyle=orthogonalEdgeStyle;rounded=0;orthogonalLoop=1;jettySize=auto;html=1;" parent="1" source="YhDnHm-8JCX_9w6hxJCG-1" edge="1">
          <mxGeometry relative="1" as="geometry">
            <mxPoint x="140" y="270" as="targetPoint" />
          </mxGeometry>
        </mxCell>
        <mxCell id="YhDnHm-8JCX_9w6hxJCG-1" value="&lt;b&gt;&lt;font style=&quot;font-size: 18px;&quot;&gt;Data Engineer&lt;/font&gt;&lt;/b&gt; deals with &lt;b&gt;&lt;font style=&quot;font-size: 18px;&quot;&gt;Data&lt;/font&gt;&lt;/b&gt;" style="whiteSpace=wrap;html=1;" parent="1" vertex="1">
          <mxGeometry x="80" y="60" width="120" height="60" as="geometry" />
        </mxCell>
        <mxCell id="YhDnHm-8JCX_9w6hxJCG-4" value="&lt;b&gt;&lt;font style=&quot;font-size: 18px;&quot;&gt;Roles and Responsibilities - T1&lt;/font&gt;&lt;/b&gt;" style="swimlane;fontStyle=0;childLayout=stackLayout;horizontal=1;startSize=30;horizontalStack=0;resizeParent=1;resizeParentMax=0;resizeLast=0;collapsible=1;marginBottom=0;whiteSpace=wrap;html=1;" parent="1" vertex="1">
          <mxGeometry x="80" y="270" width="600" height="250" as="geometry" />
        </mxCell>
        <mxCell id="YhDnHm-8JCX_9w6hxJCG-5" value="&lt;b&gt;&lt;font style=&quot;font-size: 18px;&quot;&gt;Integrates&lt;/font&gt;&lt;/b&gt;, &lt;b&gt;&lt;font style=&quot;font-size: 18px;&quot;&gt;transforms&lt;/font&gt;&lt;/b&gt;, and &lt;b&gt;&lt;font style=&quot;font-size: 18px;&quot;&gt;consolidates &lt;/font&gt;&lt;/b&gt;data from multiple structured and unstructured data sources." style="text;strokeColor=none;fillColor=none;align=left;verticalAlign=middle;spacingLeft=4;spacingRight=4;overflow=hidden;points=[[0,0.5],[1,0.5]];portConstraint=eastwest;rotatable=0;whiteSpace=wrap;html=1;" parent="YhDnHm-8JCX_9w6hxJCG-4" vertex="1">
          <mxGeometry y="30" width="600" height="40" as="geometry" />
        </mxCell>
        <mxCell id="YhDnHm-8JCX_9w6hxJCG-6" value="Creates data structures that enable the development of analytics solutions. - &lt;b&gt;&lt;font style=&quot;font-size: 18px;&quot;&gt;Data Warehouse, Data tables and Data Marts&lt;/font&gt;&lt;/b&gt;" style="text;strokeColor=none;fillColor=none;align=left;verticalAlign=middle;spacingLeft=4;spacingRight=4;overflow=hidden;points=[[0,0.5],[1,0.5]];portConstraint=eastwest;rotatable=0;whiteSpace=wrap;html=1;" parent="YhDnHm-8JCX_9w6hxJCG-4" vertex="1">
          <mxGeometry y="70" width="600" height="60" as="geometry" />
        </mxCell>
        <mxCell id="YhDnHm-8JCX_9w6hxJCG-7" value="ensure that data pipelines and data stores are &lt;b&gt;&lt;font style=&quot;font-size: 16px;&quot;&gt;high-performing, efficient, organized, and reliable&lt;/font&gt;&lt;/b&gt;&amp;nbsp;given a specific set of business requirements and constraints." style="text;strokeColor=none;fillColor=none;align=left;verticalAlign=middle;spacingLeft=4;spacingRight=4;overflow=hidden;points=[[0,0.5],[1,0.5]];portConstraint=eastwest;rotatable=0;whiteSpace=wrap;html=1;" parent="YhDnHm-8JCX_9w6hxJCG-4" vertex="1">
          <mxGeometry y="130" width="600" height="60" as="geometry" />
        </mxCell>
        <mxCell id="YhDnHm-8JCX_9w6hxJCG-8" value="&#xa;Develops solutions that meet specific business requirements&#xa;&#xa;" style="text;strokeColor=none;fillColor=none;align=left;verticalAlign=middle;spacingLeft=4;spacingRight=4;overflow=hidden;points=[[0,0.5],[1,0.5]];portConstraint=eastwest;rotatable=0;whiteSpace=wrap;html=1;" parent="YhDnHm-8JCX_9w6hxJCG-4" vertex="1">
          <mxGeometry y="190" width="600" height="30" as="geometry" />
        </mxCell>
        <mxCell id="YhDnHm-8JCX_9w6hxJCG-9" value="Considers organizational constraints, such as budget and infrastructure limitations, while designing data solutions." style="text;strokeColor=none;fillColor=none;align=left;verticalAlign=middle;spacingLeft=4;spacingRight=4;overflow=hidden;points=[[0,0.5],[1,0.5]];portConstraint=eastwest;rotatable=0;whiteSpace=wrap;html=1;" parent="YhDnHm-8JCX_9w6hxJCG-4" vertex="1">
          <mxGeometry y="220" width="600" height="30" as="geometry" />
        </mxCell>
        <mxCell id="YhDnHm-8JCX_9w6hxJCG-19" value="" style="edgeStyle=orthogonalEdgeStyle;rounded=0;orthogonalLoop=1;jettySize=auto;html=1;" parent="1" source="YhDnHm-8JCX_9w6hxJCG-12" target="YhDnHm-8JCX_9w6hxJCG-18" edge="1">
          <mxGeometry relative="1" as="geometry" />
        </mxCell>
        <mxCell id="YhDnHm-8JCX_9w6hxJCG-12" value="&lt;span style=&quot;text-wrap-mode: nowrap;&quot;&gt;Extract&amp;nbsp;&lt;/span&gt;&lt;b style=&quot;text-wrap-mode: nowrap;&quot;&gt;&lt;font style=&quot;font-size: 18px;&quot;&gt;data&amp;nbsp;&lt;/font&gt;&lt;/b&gt;&lt;span style=&quot;text-wrap-mode: nowrap;&quot;&gt;from different systems&lt;/span&gt;" style="whiteSpace=wrap;html=1;" parent="1" vertex="1">
          <mxGeometry x="60" y="150" width="120" height="60" as="geometry" />
        </mxCell>
        <mxCell id="YhDnHm-8JCX_9w6hxJCG-15" value="&lt;b&gt;&lt;font style=&quot;font-size: 18px;&quot;&gt;Data&lt;/font&gt;&lt;/b&gt;" style="swimlane;fontStyle=0;childLayout=stackLayout;horizontal=1;startSize=30;horizontalStack=0;resizeParent=1;resizeParentMax=0;resizeLast=0;collapsible=1;marginBottom=0;whiteSpace=wrap;html=1;" parent="1" vertex="1">
          <mxGeometry x="310" y="90" width="140" height="120" as="geometry" />
        </mxCell>
        <mxCell id="YhDnHm-8JCX_9w6hxJCG-16" value="&lt;b&gt;Structrued&lt;/b&gt;" style="text;strokeColor=none;fillColor=none;align=left;verticalAlign=middle;spacingLeft=4;spacingRight=4;overflow=hidden;points=[[0,0.5],[1,0.5]];portConstraint=eastwest;rotatable=0;whiteSpace=wrap;html=1;" parent="YhDnHm-8JCX_9w6hxJCG-15" vertex="1">
          <mxGeometry y="30" width="140" height="30" as="geometry" />
        </mxCell>
        <mxCell id="YhDnHm-8JCX_9w6hxJCG-17" value="&lt;b&gt;Semi-structured&amp;nbsp;&lt;/b&gt;" style="text;strokeColor=none;fillColor=none;align=left;verticalAlign=middle;spacingLeft=4;spacingRight=4;overflow=hidden;points=[[0,0.5],[1,0.5]];portConstraint=eastwest;rotatable=0;whiteSpace=wrap;html=1;" parent="YhDnHm-8JCX_9w6hxJCG-15" vertex="1">
          <mxGeometry y="60" width="140" height="30" as="geometry" />
        </mxCell>
        <mxCell id="YhDnHm-8JCX_9w6hxJCG-18" value="&lt;b&gt;Unstructured&amp;nbsp;&lt;/b&gt;" style="text;strokeColor=none;fillColor=none;align=left;verticalAlign=middle;spacingLeft=4;spacingRight=4;overflow=hidden;points=[[0,0.5],[1,0.5]];portConstraint=eastwest;rotatable=0;whiteSpace=wrap;html=1;" parent="YhDnHm-8JCX_9w6hxJCG-15" vertex="1">
          <mxGeometry y="90" width="140" height="30" as="geometry" />
        </mxCell>
        <mxCell id="YhDnHm-8JCX_9w6hxJCG-20" value="Examples" style="swimlane;fontStyle=0;childLayout=stackLayout;horizontal=1;startSize=30;horizontalStack=0;resizeParent=1;resizeParentMax=0;resizeLast=0;collapsible=1;marginBottom=0;whiteSpace=wrap;html=1;" parent="1" vertex="1">
          <mxGeometry x="450" y="90" width="330" height="120" as="geometry" />
        </mxCell>
        <mxCell id="YhDnHm-8JCX_9w6hxJCG-21" value="CSV files - aligned data - comes from tables&amp;nbsp;" style="text;strokeColor=none;fillColor=none;align=left;verticalAlign=middle;spacingLeft=4;spacingRight=4;overflow=hidden;points=[[0,0.5],[1,0.5]];portConstraint=eastwest;rotatable=0;whiteSpace=wrap;html=1;" parent="YhDnHm-8JCX_9w6hxJCG-20" vertex="1">
          <mxGeometry y="30" width="330" height="30" as="geometry" />
        </mxCell>
        <mxCell id="YhDnHm-8JCX_9w6hxJCG-22" value="JSON- needs flatten before loading - may not fit into table structure" style="text;strokeColor=none;fillColor=none;align=left;verticalAlign=middle;spacingLeft=4;spacingRight=4;overflow=hidden;points=[[0,0.5],[1,0.5]];portConstraint=eastwest;rotatable=0;whiteSpace=wrap;html=1;" parent="YhDnHm-8JCX_9w6hxJCG-20" vertex="1">
          <mxGeometry y="60" width="330" height="30" as="geometry" />
        </mxCell>
        <mxCell id="YhDnHm-8JCX_9w6hxJCG-23" value="Key - value data, PDF&#39;s, documents, images, vedios etc." style="text;strokeColor=none;fillColor=none;align=left;verticalAlign=middle;spacingLeft=4;spacingRight=4;overflow=hidden;points=[[0,0.5],[1,0.5]];portConstraint=eastwest;rotatable=0;whiteSpace=wrap;html=1;" parent="YhDnHm-8JCX_9w6hxJCG-20" vertex="1">
          <mxGeometry y="90" width="330" height="30" as="geometry" />
        </mxCell>
        <mxCell id="YhDnHm-8JCX_9w6hxJCG-26" value="&lt;b&gt;&lt;font style=&quot;font-size: 18px;&quot;&gt;Integration&lt;/font&gt;&lt;/b&gt;" style="swimlane;fontStyle=0;childLayout=stackLayout;horizontal=1;startSize=30;horizontalStack=0;resizeParent=1;resizeParentMax=0;resizeLast=0;collapsible=1;marginBottom=0;whiteSpace=wrap;html=1;" parent="1" vertex="1">
          <mxGeometry x="80" y="550" width="710" height="120" as="geometry" />
        </mxCell>
        <mxCell id="YhDnHm-8JCX_9w6hxJCG-27" value="Attributes: OLTP(Online Transaction Process), OLAP(Online Analytical Process), Different Systems(MFG Pro, Salesforce, SAP etc.)" style="text;strokeColor=none;fillColor=none;align=left;verticalAlign=middle;spacingLeft=4;spacingRight=4;overflow=hidden;points=[[0,0.5],[1,0.5]];portConstraint=eastwest;rotatable=0;whiteSpace=wrap;html=1;" parent="YhDnHm-8JCX_9w6hxJCG-26" vertex="1">
          <mxGeometry y="30" width="710" height="30" as="geometry" />
        </mxCell>
        <mxCell id="YhDnHm-8JCX_9w6hxJCG-28" value="Extracting data from mulitiple systems into Staging tables or Datalakes." style="text;strokeColor=none;fillColor=none;align=left;verticalAlign=middle;spacingLeft=4;spacingRight=4;overflow=hidden;points=[[0,0.5],[1,0.5]];portConstraint=eastwest;rotatable=0;whiteSpace=wrap;html=1;" parent="YhDnHm-8JCX_9w6hxJCG-26" vertex="1">
          <mxGeometry y="60" width="710" height="30" as="geometry" />
        </mxCell>
        <mxCell id="YhDnHm-8JCX_9w6hxJCG-29" value="Item 3" style="text;strokeColor=none;fillColor=none;align=left;verticalAlign=middle;spacingLeft=4;spacingRight=4;overflow=hidden;points=[[0,0.5],[1,0.5]];portConstraint=eastwest;rotatable=0;whiteSpace=wrap;html=1;" parent="YhDnHm-8JCX_9w6hxJCG-26" vertex="1">
          <mxGeometry y="90" width="710" height="30" as="geometry" />
        </mxCell>
        <mxCell id="YhDnHm-8JCX_9w6hxJCG-31" value="" style="endArrow=classic;html=1;rounded=0;entryX=0.11;entryY=0.025;entryDx=0;entryDy=0;entryPerimeter=0;exitX=0.466;exitY=0.916;exitDx=0;exitDy=0;exitPerimeter=0;" parent="1" source="YhDnHm-8JCX_9w6hxJCG-5" target="YhDnHm-8JCX_9w6hxJCG-26" edge="1">
          <mxGeometry width="50" height="50" relative="1" as="geometry">
            <mxPoint x="390" y="410" as="sourcePoint" />
            <mxPoint x="440" y="360" as="targetPoint" />
            <Array as="points">
              <mxPoint x="160" y="520" />
            </Array>
          </mxGeometry>
        </mxCell>
        <mxCell id="YhDnHm-8JCX_9w6hxJCG-32" value="" style="endArrow=classic;html=1;rounded=0;exitX=0.463;exitY=0.94;exitDx=0;exitDy=0;exitPerimeter=0;entryX=0.074;entryY=0.002;entryDx=0;entryDy=0;entryPerimeter=0;" parent="1" source="YhDnHm-8JCX_9w6hxJCG-5" target="YhDnHm-8JCX_9w6hxJCG-34" edge="1">
          <mxGeometry width="50" height="50" relative="1" as="geometry">
            <mxPoint x="359" y="503" as="sourcePoint" />
            <mxPoint x="130" y="730" as="targetPoint" />
            <Array as="points">
              <mxPoint x="40" y="530" />
              <mxPoint x="40" y="720" />
              <mxPoint x="130" y="720" />
            </Array>
          </mxGeometry>
        </mxCell>
        <mxCell id="YhDnHm-8JCX_9w6hxJCG-33" value="" style="endArrow=classic;html=1;rounded=0;entryX=0.093;entryY=0.006;entryDx=0;entryDy=0;entryPerimeter=0;" parent="1" source="YhDnHm-8JCX_9w6hxJCG-5" target="YhDnHm-8JCX_9w6hxJCG-38" edge="1">
          <mxGeometry width="50" height="50" relative="1" as="geometry">
            <mxPoint x="360" y="390" as="sourcePoint" />
            <mxPoint x="142.72000000000003" y="1057.6" as="targetPoint" />
            <Array as="points">
              <mxPoint x="20" y="580" />
              <mxPoint x="20" y="950" />
              <mxPoint x="140" y="950" />
            </Array>
          </mxGeometry>
        </mxCell>
        <mxCell id="YhDnHm-8JCX_9w6hxJCG-34" value="&lt;b&gt;&lt;font style=&quot;font-size: 18px;&quot;&gt;Transformation&lt;/font&gt;&lt;/b&gt;" style="swimlane;fontStyle=0;childLayout=stackLayout;horizontal=1;startSize=30;horizontalStack=0;resizeParent=1;resizeParentMax=0;resizeLast=0;collapsible=1;marginBottom=0;whiteSpace=wrap;html=1;" parent="1" vertex="1">
          <mxGeometry x="80" y="770" width="710" height="150" as="geometry" />
        </mxCell>
        <mxCell id="YhDnHm-8JCX_9w6hxJCG-35" value="Transform operational data into suitable structure and format for analysys - Ex: Extract data from MFG Pro and transfrom data into unified data and load into Data Warehouse." style="text;strokeColor=none;fillColor=none;align=left;verticalAlign=middle;spacingLeft=4;spacingRight=4;overflow=hidden;points=[[0,0.5],[1,0.5]];portConstraint=eastwest;rotatable=0;whiteSpace=wrap;html=1;" parent="YhDnHm-8JCX_9w6hxJCG-34" vertex="1">
          <mxGeometry y="30" width="710" height="30" as="geometry" />
        </mxCell>
        <mxCell id="YhDnHm-8JCX_9w6hxJCG-36" value="ETL - Extract Transform and Load -&amp;nbsp;&lt;b&gt;&lt;font style=&quot;font-size: 18px;&quot;&gt;Data Warehouse&lt;/font&gt;&lt;/b&gt;" style="text;strokeColor=none;fillColor=none;align=left;verticalAlign=middle;spacingLeft=4;spacingRight=4;overflow=hidden;points=[[0,0.5],[1,0.5]];portConstraint=eastwest;rotatable=0;whiteSpace=wrap;html=1;" parent="YhDnHm-8JCX_9w6hxJCG-34" vertex="1">
          <mxGeometry y="60" width="710" height="30" as="geometry" />
        </mxCell>
        <mxCell id="YhDnHm-8JCX_9w6hxJCG-37" value="ELT - Extract Load and Transform&amp;nbsp; -&amp;nbsp;&lt;font style=&quot;&quot;&gt;&lt;b style=&quot;font-size: 18px;&quot;&gt;Data Lake - &lt;/b&gt;&lt;font style=&quot;font-size: 12px;&quot;&gt;use&amp;nbsp;&lt;/font&gt;&lt;/font&gt;&lt;span style=&quot;color: rgb(22, 22, 22); font-family: &amp;quot;Segoe UI&amp;quot;, SegoeUI, &amp;quot;Helvetica Neue&amp;quot;, Helvetica, Arial, sans-serif; font-size: 16px; background-color: rgb(255, 255, 255);&quot;&gt;&lt;b&gt;big data&lt;/b&gt;&quot; processing techniques to transform it&lt;/span&gt;" style="text;strokeColor=none;fillColor=none;align=left;verticalAlign=middle;spacingLeft=4;spacingRight=4;overflow=hidden;points=[[0,0.5],[1,0.5]];portConstraint=eastwest;rotatable=0;whiteSpace=wrap;html=1;" parent="YhDnHm-8JCX_9w6hxJCG-34" vertex="1">
          <mxGeometry y="90" width="710" height="30" as="geometry" />
        </mxCell>
        <mxCell id="YhDnHm-8JCX_9w6hxJCG-42" value="Data prepared to downstream analytical needs." style="text;strokeColor=none;fillColor=none;align=left;verticalAlign=middle;spacingLeft=4;spacingRight=4;overflow=hidden;points=[[0,0.5],[1,0.5]];portConstraint=eastwest;rotatable=0;whiteSpace=wrap;html=1;" parent="YhDnHm-8JCX_9w6hxJCG-34" vertex="1">
          <mxGeometry y="120" width="710" height="30" as="geometry" />
        </mxCell>
        <mxCell id="YhDnHm-8JCX_9w6hxJCG-38" value="&lt;b&gt;&lt;font style=&quot;font-size: 18px;&quot;&gt;Consolidation&lt;/font&gt;&lt;/b&gt;" style="swimlane;fontStyle=0;childLayout=stackLayout;horizontal=1;startSize=30;horizontalStack=0;resizeParent=1;resizeParentMax=0;resizeLast=0;collapsible=1;marginBottom=0;whiteSpace=wrap;html=1;" parent="1" vertex="1">
          <mxGeometry x="80" y="1010" width="690" height="90" as="geometry" />
        </mxCell>
        <mxCell id="YhDnHm-8JCX_9w6hxJCG-39" value="Combining data into Data Warehouse or Data Lake for dwon stream system or process to support analytics and reporting." style="text;strokeColor=none;fillColor=none;align=left;verticalAlign=middle;spacingLeft=4;spacingRight=4;overflow=hidden;points=[[0,0.5],[1,0.5]];portConstraint=eastwest;rotatable=0;whiteSpace=wrap;html=1;" parent="YhDnHm-8JCX_9w6hxJCG-38" vertex="1">
          <mxGeometry y="30" width="690" height="30" as="geometry" />
        </mxCell>
        <mxCell id="YhDnHm-8JCX_9w6hxJCG-40" value="Item 2" style="text;strokeColor=none;fillColor=none;align=left;verticalAlign=middle;spacingLeft=4;spacingRight=4;overflow=hidden;points=[[0,0.5],[1,0.5]];portConstraint=eastwest;rotatable=0;whiteSpace=wrap;html=1;" parent="YhDnHm-8JCX_9w6hxJCG-38" vertex="1">
          <mxGeometry y="60" width="690" height="30" as="geometry" />
        </mxCell>
        <mxCell id="YhDnHm-8JCX_9w6hxJCG-43" value="&lt;b&gt;&lt;font style=&quot;font-size: 20px;&quot;&gt;Languages&lt;/font&gt;&lt;/b&gt;" style="text;html=1;align=center;verticalAlign=middle;resizable=0;points=[];autosize=1;strokeColor=none;fillColor=none;" parent="1" vertex="1">
          <mxGeometry x="40" y="1215" width="130" height="40" as="geometry" />
        </mxCell>
        <mxCell id="YhDnHm-8JCX_9w6hxJCG-44" value="Languages" style="swimlane;fontStyle=0;childLayout=stackLayout;horizontal=1;startSize=30;horizontalStack=0;resizeParent=1;resizeParentMax=0;resizeLast=0;collapsible=1;marginBottom=0;whiteSpace=wrap;html=1;" parent="1" vertex="1">
          <mxGeometry x="35" y="1280" width="140" height="120" as="geometry" />
        </mxCell>
        <mxCell id="YhDnHm-8JCX_9w6hxJCG-45" value="SQL" style="text;strokeColor=none;fillColor=none;align=left;verticalAlign=middle;spacingLeft=4;spacingRight=4;overflow=hidden;points=[[0,0.5],[1,0.5]];portConstraint=eastwest;rotatable=0;whiteSpace=wrap;html=1;" parent="YhDnHm-8JCX_9w6hxJCG-44" vertex="1">
          <mxGeometry y="30" width="140" height="30" as="geometry" />
        </mxCell>
        <mxCell id="YhDnHm-8JCX_9w6hxJCG-46" value="Python" style="text;strokeColor=none;fillColor=none;align=left;verticalAlign=middle;spacingLeft=4;spacingRight=4;overflow=hidden;points=[[0,0.5],[1,0.5]];portConstraint=eastwest;rotatable=0;whiteSpace=wrap;html=1;" parent="YhDnHm-8JCX_9w6hxJCG-44" vertex="1">
          <mxGeometry y="60" width="140" height="30" as="geometry" />
        </mxCell>
        <mxCell id="YhDnHm-8JCX_9w6hxJCG-47" value="R, Java, Scala, .NET, Notebooks&amp;nbsp;" style="text;strokeColor=none;fillColor=none;align=left;verticalAlign=middle;spacingLeft=4;spacingRight=4;overflow=hidden;points=[[0,0.5],[1,0.5]];portConstraint=eastwest;rotatable=0;whiteSpace=wrap;html=1;" parent="YhDnHm-8JCX_9w6hxJCG-44" vertex="1">
          <mxGeometry y="90" width="140" height="30" as="geometry" />
        </mxCell>
        <mxCell id="YhDnHm-8JCX_9w6hxJCG-48" value="&lt;b&gt;&lt;font style=&quot;font-size: 16px;&quot;&gt;Imp Data Engineer Concepts&lt;/font&gt;&lt;/b&gt;" style="swimlane;fontStyle=0;childLayout=stackLayout;horizontal=1;startSize=30;horizontalStack=0;resizeParent=1;resizeParentMax=0;resizeLast=0;collapsible=1;marginBottom=0;whiteSpace=wrap;html=1;" parent="1" vertex="1">
          <mxGeometry x="40" y="1680" width="670" height="290" as="geometry" />
        </mxCell>
        <mxCell id="YhDnHm-8JCX_9w6hxJCG-49" value="&lt;b&gt;&lt;font style=&quot;font-size: 16px;&quot;&gt;Operational Data and Analytical Data&lt;/font&gt;&lt;/b&gt;: Data that is generated and stored in applications. (Often &lt;b&gt;&lt;font style=&quot;font-size: 16px;&quot;&gt;relational and non-relational&lt;/font&gt;&lt;/b&gt; databases) &lt;b&gt;&lt;font style=&quot;font-size: 16px;&quot;&gt;OLTP&lt;/font&gt;&lt;/b&gt;&lt;br&gt;Analytical data that has been optimized for analysis and reporting(ofter&lt;b&gt;&lt;font style=&quot;font-size: 16px;&quot;&gt; Data Warehouse&lt;/font&gt;&lt;/b&gt;) &lt;b&gt;&lt;font style=&quot;font-size: 16px;&quot;&gt;OLAT&lt;/font&gt;&lt;/b&gt;" style="text;strokeColor=none;fillColor=none;align=left;verticalAlign=middle;spacingLeft=4;spacingRight=4;overflow=hidden;points=[[0,0.5],[1,0.5]];portConstraint=eastwest;rotatable=0;whiteSpace=wrap;html=1;" parent="YhDnHm-8JCX_9w6hxJCG-48" vertex="1">
          <mxGeometry y="30" width="670" height="70" as="geometry" />
        </mxCell>
        <mxCell id="YhDnHm-8JCX_9w6hxJCG-50" value="&lt;font style=&quot;&quot;&gt;&lt;b style=&quot;font-size: 16px;&quot;&gt;Streaming Data: &lt;/b&gt;&lt;font style=&quot;font-size: 12px;&quot;&gt;Real time stream of data that genarated from perpetual sources. Ex: IoT devices, social media feeds&lt;/font&gt;&lt;/font&gt;" style="text;strokeColor=none;fillColor=none;align=left;verticalAlign=middle;spacingLeft=4;spacingRight=4;overflow=hidden;points=[[0,0.5],[1,0.5]];portConstraint=eastwest;rotatable=0;whiteSpace=wrap;html=1;" parent="YhDnHm-8JCX_9w6hxJCG-48" vertex="1">
          <mxGeometry y="100" width="670" height="30" as="geometry" />
        </mxCell>
        <mxCell id="YhDnHm-8JCX_9w6hxJCG-51" value="&lt;font style=&quot;&quot;&gt;&lt;b style=&quot;font-size: 16px;&quot;&gt;Data Pipelines: &lt;/b&gt;&lt;font style=&quot;font-size: 12px;&quot;&gt;Orchestrate activities that transfer and transform data.&lt;/font&gt;&lt;/font&gt;" style="text;strokeColor=none;fillColor=none;align=left;verticalAlign=middle;spacingLeft=4;spacingRight=4;overflow=hidden;points=[[0,0.5],[1,0.5]];portConstraint=eastwest;rotatable=0;whiteSpace=wrap;html=1;" parent="YhDnHm-8JCX_9w6hxJCG-48" vertex="1">
          <mxGeometry y="130" width="670" height="40" as="geometry" />
        </mxCell>
        <mxCell id="YhDnHm-8JCX_9w6hxJCG-54" value="&lt;b&gt;&lt;font style=&quot;font-size: 16px;&quot;&gt;Data Lakes:&amp;nbsp;&lt;/font&gt;&lt;/b&gt;&lt;span style=&quot;color: rgb(22, 22, 22); background-color: rgb(255, 255, 255);&quot;&gt;&lt;font style=&quot;font-size: 12px;&quot; face=&quot;Helvetica&quot;&gt;storage repository that holds large amounts of data in native, raw formats. (any kind of data)&lt;/font&gt;&lt;/span&gt;" style="text;strokeColor=none;fillColor=none;align=left;verticalAlign=middle;spacingLeft=4;spacingRight=4;overflow=hidden;points=[[0,0.5],[1,0.5]];portConstraint=eastwest;rotatable=0;whiteSpace=wrap;html=1;" parent="YhDnHm-8JCX_9w6hxJCG-48" vertex="1">
          <mxGeometry y="170" width="670" height="30" as="geometry" />
        </mxCell>
        <mxCell id="YhDnHm-8JCX_9w6hxJCG-55" value="&lt;font style=&quot;font-size: 16px;&quot;&gt;&lt;b&gt;Data Warehouses:&amp;nbsp;&lt;/b&gt;&lt;/font&gt;&lt;span style=&quot;color: rgb(22, 22, 22); background-color: rgb(255, 255, 255);&quot;&gt;&lt;font style=&quot;font-size: 12px;&quot;&gt;centralized repository of integrated data from one or more disparate sources. curent and historical data stored in relational tables.&lt;/font&gt;&lt;/span&gt;" style="text;strokeColor=none;fillColor=none;align=left;verticalAlign=middle;spacingLeft=4;spacingRight=4;overflow=hidden;points=[[0,0.5],[1,0.5]];portConstraint=eastwest;rotatable=0;whiteSpace=wrap;html=1;" parent="YhDnHm-8JCX_9w6hxJCG-48" vertex="1">
          <mxGeometry y="200" width="670" height="40" as="geometry" />
        </mxCell>
        <mxCell id="YhDnHm-8JCX_9w6hxJCG-56" value="&lt;font style=&quot;font-weight: bold; font-size: 16px;&quot;&gt;Apache Spark: &lt;/font&gt;&lt;font style=&quot;font-size: 12px;&quot;&gt;&lt;b&gt;E&lt;/b&gt;TL tool - Parallel processing framework that process data in parallel and inmemory processing and distributed file storage - OSS - Open Source Software tool.&lt;/font&gt;" style="text;strokeColor=none;fillColor=none;align=left;verticalAlign=middle;spacingLeft=4;spacingRight=4;overflow=hidden;points=[[0,0.5],[1,0.5]];portConstraint=eastwest;rotatable=0;whiteSpace=wrap;html=1;" parent="YhDnHm-8JCX_9w6hxJCG-48" vertex="1">
          <mxGeometry y="240" width="670" height="50" as="geometry" />
        </mxCell>
        <mxCell id="YhDnHm-8JCX_9w6hxJCG-53" value="&lt;b&gt;&lt;font style=&quot;font-size: 20px;&quot;&gt;Imp Data Engineer Concepts&lt;/font&gt;&lt;/b&gt;" style="text;html=1;align=center;verticalAlign=middle;resizable=0;points=[];autosize=1;strokeColor=none;fillColor=none;" parent="1" vertex="1">
          <mxGeometry x="40" y="1560" width="300" height="40" as="geometry" />
        </mxCell>
        <mxCell id="YhDnHm-8JCX_9w6hxJCG-58" value="&lt;div&gt;T1 - to design, implement, and manage solutions that integrate operational and analytical data sources or extract operational data&amp;nbsp;&lt;/div&gt;&lt;div&gt;from multiple systems, transform it into appropriate structures for analytics, and load it into an analytical data store&lt;/div&gt;&lt;div&gt;&amp;nbsp;(usually referred to as ETL solutions)&lt;br&gt;&lt;span style=&quot;color: rgb(22, 22, 22); text-wrap-mode: wrap; background-color: rgb(255, 255, 255);&quot;&gt;capture real-time stream of data and ingest them into analytical data systems, often combining the real-time data with&amp;nbsp;&lt;/span&gt;&lt;/div&gt;&lt;div&gt;&lt;span style=&quot;color: rgb(22, 22, 22); text-wrap-mode: wrap; background-color: rgb(255, 255, 255);&quot;&gt;other application&amp;nbsp;&lt;/span&gt;&lt;span style=&quot;background-color: rgb(255, 255, 255); color: rgb(22, 22, 22); text-wrap-mode: wrap;&quot;&gt;data that is processed in batches&lt;/span&gt;&lt;/div&gt;&lt;div&gt;&lt;span style=&quot;background-color: rgb(255, 255, 255); color: rgb(22, 22, 22); text-wrap-mode: wrap;&quot;&gt;Design, develop, and implement pipelines that are often called ETL solutions that can be triggered&amp;nbsp;&lt;/span&gt;&lt;span style=&quot;background-color: rgb(255, 255, 255); color: rgb(22, 22, 22); text-wrap-mode: wrap;&quot;&gt;&lt;font style=&quot;font-size: 12px;&quot;&gt;based on a schedule or in response to events.&lt;/font&gt;&lt;/span&gt;&lt;/div&gt;&lt;div&gt;&lt;span style=&quot;background-color: rgb(255, 255, 255);&quot;&gt;&lt;font style=&quot;&quot;&gt;&lt;font color=&quot;#161616&quot;&gt;&lt;span style=&quot;text-wrap-mode: wrap;&quot;&gt;Design and implement relational Data warehouses and manage regular data load into tables.&lt;/span&gt;&lt;/font&gt;&lt;br&gt;&lt;font color=&quot;#161616&quot;&gt;&lt;span style=&quot;text-wrap-mode: wrap;&quot;&gt;Data engineers need to be proficient with Spark, using notebooks and other code artifacts to process data in a data lake and&amp;nbsp;&lt;/span&gt;&lt;/font&gt;&lt;/font&gt;&lt;/span&gt;&lt;/div&gt;&lt;div&gt;&lt;span style=&quot;background-color: rgb(255, 255, 255);&quot;&gt;&lt;font style=&quot;&quot;&gt;&lt;font color=&quot;#161616&quot;&gt;&lt;span style=&quot;text-wrap-mode: wrap;&quot;&gt;prepare&amp;nbsp;&lt;/span&gt;&lt;/font&gt;&lt;/font&gt;&lt;/span&gt;&lt;span style=&quot;text-wrap-mode: wrap; color: rgb(22, 22, 22); background-color: rgb(255, 255, 255);&quot;&gt;it for modeling and analysis&lt;/span&gt;&lt;/div&gt;" style="text;html=1;align=left;verticalAlign=middle;resizable=0;points=[];autosize=1;strokeColor=none;fillColor=none;" parent="1" vertex="1">
          <mxGeometry x="20" y="2070" width="790" height="140" as="geometry" />
        </mxCell>
        <mxCell id="YhDnHm-8JCX_9w6hxJCG-59" value="" style="shape=image;verticalLabelPosition=bottom;labelBackgroundColor=default;verticalAlign=top;aspect=fixed;imageAspect=0;image=https://learn.microsoft.com/en-us/training/wwl-data-ai/introduction-to-data-engineering-azure/media/4-operational-analytical-data.png;" parent="1" vertex="1">
          <mxGeometry x="90" y="2290" width="300" height="209" as="geometry" />
        </mxCell>
        <mxCell id="YhDnHm-8JCX_9w6hxJCG-60" value="" style="shape=image;verticalLabelPosition=bottom;labelBackgroundColor=default;verticalAlign=top;aspect=fixed;imageAspect=0;image=https://learn.microsoft.com/en-us/training/wwl-data-ai/introduction-to-data-engineering-azure/media/3-data-engineering-azure.png;" parent="1" vertex="1">
          <mxGeometry x="60" y="2660" width="660" height="276.65" as="geometry" />
        </mxCell>
        <mxCell id="YhDnHm-8JCX_9w6hxJCG-61" value="Type" style="swimlane;fontStyle=0;childLayout=stackLayout;horizontal=1;startSize=30;horizontalStack=0;resizeParent=1;resizeParentMax=0;resizeLast=0;collapsible=1;marginBottom=0;whiteSpace=wrap;html=1;" parent="1" vertex="1">
          <mxGeometry x="60" y="3080" width="140" height="120" as="geometry" />
        </mxCell>
        <mxCell id="YhDnHm-8JCX_9w6hxJCG-62" value="Data Storage" style="text;strokeColor=none;fillColor=none;align=left;verticalAlign=middle;spacingLeft=4;spacingRight=4;overflow=hidden;points=[[0,0.5],[1,0.5]];portConstraint=eastwest;rotatable=0;whiteSpace=wrap;html=1;" parent="YhDnHm-8JCX_9w6hxJCG-61" vertex="1">
          <mxGeometry y="30" width="140" height="30" as="geometry" />
        </mxCell>
        <mxCell id="YhDnHm-8JCX_9w6hxJCG-63" value="Data Streaming" style="text;strokeColor=none;fillColor=none;align=left;verticalAlign=middle;spacingLeft=4;spacingRight=4;overflow=hidden;points=[[0,0.5],[1,0.5]];portConstraint=eastwest;rotatable=0;whiteSpace=wrap;html=1;" parent="YhDnHm-8JCX_9w6hxJCG-61" vertex="1">
          <mxGeometry y="60" width="140" height="30" as="geometry" />
        </mxCell>
        <mxCell id="YhDnHm-8JCX_9w6hxJCG-64" value="Data Processing or ETL Tools" style="text;strokeColor=none;fillColor=none;align=left;verticalAlign=middle;spacingLeft=4;spacingRight=4;overflow=hidden;points=[[0,0.5],[1,0.5]];portConstraint=eastwest;rotatable=0;whiteSpace=wrap;html=1;" parent="YhDnHm-8JCX_9w6hxJCG-61" vertex="1">
          <mxGeometry y="90" width="140" height="30" as="geometry" />
        </mxCell>
        <mxCell id="YhDnHm-8JCX_9w6hxJCG-65" value="Tools" style="swimlane;fontStyle=0;childLayout=stackLayout;horizontal=1;startSize=30;horizontalStack=0;resizeParent=1;resizeParentMax=0;resizeLast=0;collapsible=1;marginBottom=0;whiteSpace=wrap;html=1;" parent="1" vertex="1">
          <mxGeometry x="200" y="3080" width="430" height="120" as="geometry" />
        </mxCell>
        <mxCell id="YhDnHm-8JCX_9w6hxJCG-66" value="SQL Server,Cosmos DB, MS Dataverse, Azure Datalake Storage Gen2" style="text;strokeColor=none;fillColor=none;align=left;verticalAlign=middle;spacingLeft=4;spacingRight=4;overflow=hidden;points=[[0,0.5],[1,0.5]];portConstraint=eastwest;rotatable=0;whiteSpace=wrap;html=1;" parent="YhDnHm-8JCX_9w6hxJCG-65" vertex="1">
          <mxGeometry y="30" width="430" height="30" as="geometry" />
        </mxCell>
        <mxCell id="YhDnHm-8JCX_9w6hxJCG-67" value="Azure Even Hub, Azure Stream Analytics" style="text;strokeColor=none;fillColor=none;align=left;verticalAlign=middle;spacingLeft=4;spacingRight=4;overflow=hidden;points=[[0,0.5],[1,0.5]];portConstraint=eastwest;rotatable=0;whiteSpace=wrap;html=1;" parent="YhDnHm-8JCX_9w6hxJCG-65" vertex="1">
          <mxGeometry y="60" width="430" height="30" as="geometry" />
        </mxCell>
        <mxCell id="YhDnHm-8JCX_9w6hxJCG-68" value="Azure Data Factory, Azure Stream Analytics, Azure Databricks, Azure Fabric etc." style="text;strokeColor=none;fillColor=none;align=left;verticalAlign=middle;spacingLeft=4;spacingRight=4;overflow=hidden;points=[[0,0.5],[1,0.5]];portConstraint=eastwest;rotatable=0;whiteSpace=wrap;html=1;" parent="YhDnHm-8JCX_9w6hxJCG-65" vertex="1">
          <mxGeometry y="90" width="430" height="30" as="geometry" />
        </mxCell>
        <mxCell id="YhDnHm-8JCX_9w6hxJCG-69" value="&lt;h3&gt;Overview of Apache Spark for Data Engineers&lt;/h3&gt;&lt;h4&gt;1. &lt;strong&gt;Apache Spark: An Introduction&lt;/strong&gt;&lt;/h4&gt;&lt;ul&gt;&lt;li&gt;&lt;strong&gt;Definition&lt;/strong&gt;:&lt;ul&gt;&lt;li&gt;A &lt;strong&gt;parallel processing framework&lt;/strong&gt; widely used in big data applications.&lt;/li&gt;&lt;li&gt;Utilizes &lt;strong&gt;in-memory processing&lt;/strong&gt; and &lt;strong&gt;distributed file storage&lt;/strong&gt; for efficient data handling.&lt;/li&gt;&lt;/ul&gt;&lt;/li&gt;&lt;li&gt;&lt;strong&gt;Open-Source&lt;/strong&gt;:&lt;ul&gt;&lt;li&gt;A commonly adopted &lt;strong&gt;open-source software (OSS)&lt;/strong&gt; in the big data ecosystem.&lt;/li&gt;&lt;/ul&gt;&lt;/li&gt;&lt;/ul&gt;&lt;h4&gt;2. &lt;strong&gt;Key Benefits of Apache Spark&lt;/strong&gt;&lt;/h4&gt;&lt;ul&gt;&lt;li&gt;&lt;strong&gt;In-Memory Processing&lt;/strong&gt;:&lt;ul&gt;&lt;li&gt;Enables faster computation by storing intermediate data in memory, reducing read/write operations.&lt;/li&gt;&lt;/ul&gt;&lt;/li&gt;&lt;li&gt;&lt;strong&gt;Distributed File Storage&lt;/strong&gt;:&lt;ul&gt;&lt;li&gt;Efficiently processes large datasets by distributing files across multiple nodes.&lt;/li&gt;&lt;/ul&gt;&lt;/li&gt;&lt;/ul&gt;&lt;h4&gt;3. &lt;strong&gt;Data Engineer&#39;s Role with Apache Spark&lt;/strong&gt;&lt;/h4&gt;&lt;ul&gt;&lt;li&gt;&lt;strong&gt;Skills in Spark&lt;/strong&gt;:&lt;ul&gt;&lt;li&gt;Proficiency in Spark for managing and processing large volumes of data.&lt;/li&gt;&lt;/ul&gt;&lt;/li&gt;&lt;li&gt;&lt;strong&gt;Tools and Artifacts&lt;/strong&gt;:&lt;ul&gt;&lt;li&gt;Utilizes &lt;strong&gt;notebooks&lt;/strong&gt; and other code artifacts to process data within a data lake.&lt;/li&gt;&lt;/ul&gt;&lt;/li&gt;&lt;li&gt;&lt;strong&gt;Application&lt;/strong&gt;:&lt;ul&gt;&lt;li&gt;Prepares data for &lt;strong&gt;modeling&lt;/strong&gt; and &lt;strong&gt;analysis&lt;/strong&gt;, setting the foundation for analytics and insights.&lt;/li&gt;&lt;/ul&gt;&lt;/li&gt;&lt;/ul&gt;" style="text;whiteSpace=wrap;html=1;" parent="1" vertex="1">
          <mxGeometry x="70" y="3260" width="560" height="460" as="geometry" />
        </mxCell>
        <mxCell id="YhDnHm-8JCX_9w6hxJCG-70" value="&lt;font style=&quot;font-size: 12px;&quot;&gt;&lt;span style=&quot;color: rgb(0, 29, 53); font-family: &amp;quot;Google Sans&amp;quot;, Arial, sans-serif; font-style: normal; font-variant-ligatures: normal; font-variant-caps: normal; font-weight: 400; letter-spacing: normal; orphans: 2; text-align: start; text-indent: 0px; text-transform: none; widows: 2; word-spacing: 0px; -webkit-text-stroke-width: 0px; white-space: normal; background-color: rgb(255, 255, 255); text-decoration-thickness: initial; text-decoration-style: initial; text-decoration-color: initial; float: none; display: inline !important;&quot;&gt;Distributed file storage in Apache Spark and Databricks refers to&amp;nbsp;&lt;/span&gt;&lt;mark class=&quot;QVRyCf&quot; style=&quot;background: var(--m3c22); color: inherit; border-radius: 4px; font-weight: 500; padding: 0px 2px; font-family: &amp;quot;Google Sans&amp;quot;, Arial, sans-serif; font-style: normal; font-variant-ligatures: normal; font-variant-caps: normal; letter-spacing: normal; orphans: 2; text-align: start; text-indent: 0px; text-transform: none; widows: 2; word-spacing: 0px; -webkit-text-stroke-width: 0px; white-space: normal; text-decoration-thickness: initial; text-decoration-style: initial; text-decoration-color: initial;&quot;&gt;the ability to store and access data across multiple file servers or locations&lt;/mark&gt;&lt;/font&gt;" style="text;whiteSpace=wrap;html=1;" parent="1" vertex="1">
          <mxGeometry x="90" y="3700" width="560" height="40" as="geometry" />
        </mxCell>
        <mxCell id="M7AG7lGxA6wFCGQZ4ymq-1" value="&lt;b&gt;&lt;font style=&quot;font-size: 20px;&quot;&gt;Azure Data Lake Storage Gen2&lt;/font&gt;&lt;/b&gt;" style="text;html=1;align=center;verticalAlign=middle;resizable=0;points=[];autosize=1;strokeColor=none;fillColor=none;" vertex="1" parent="1">
          <mxGeometry x="85" y="3910" width="310" height="40" as="geometry" />
        </mxCell>
        <mxCell id="M7AG7lGxA6wFCGQZ4ymq-2" value="&lt;b&gt;&lt;font style=&quot;font-size: 16px;&quot;&gt;Problem&lt;/font&gt;&lt;/b&gt;: BI Solution using Relation database that can&#39;t store unstructured data." style="text;html=1;align=center;verticalAlign=middle;resizable=0;points=[];autosize=1;strokeColor=none;fillColor=none;" vertex="1" parent="1">
          <mxGeometry x="20" y="4008" width="470" height="30" as="geometry" />
        </mxCell>
        <mxCell id="M7AG7lGxA6wFCGQZ4ymq-3" value="Solution: Data Lakes - Azure Data Lake Storage Gen2" style="text;html=1;align=center;verticalAlign=middle;resizable=0;points=[];autosize=1;strokeColor=none;fillColor=none;" vertex="1" parent="1">
          <mxGeometry x="40" y="4070" width="310" height="30" as="geometry" />
        </mxCell>
        <mxCell id="M7AG7lGxA6wFCGQZ4ymq-4" value="&lt;h3&gt;Data Lakes: An Overview&lt;/h3&gt;&lt;h4&gt;1. &lt;strong&gt;Purpose and Functionality of Data Lakes&lt;/strong&gt;&lt;/h4&gt;&lt;ul&gt;&lt;li&gt;&lt;strong&gt;Definition&lt;/strong&gt;:&lt;ul&gt;&lt;li&gt;A &lt;strong&gt;data lake&lt;/strong&gt; is a storage solution for massive volumes of data, typically file-based.&lt;/li&gt;&lt;/ul&gt;&lt;/li&gt;&lt;li&gt;&lt;strong&gt;Scalability&lt;/strong&gt;:&lt;ul&gt;&lt;li&gt;Built on a &lt;strong&gt;distributed file system&lt;/strong&gt; that supports high scalability, enabling efficient management of large datasets.&lt;/li&gt;&lt;/ul&gt;&lt;/li&gt;&lt;/ul&gt;&lt;h4&gt;2. &lt;strong&gt;Data Types Stored in Data Lakes&lt;/strong&gt;&lt;/h4&gt;&lt;ul&gt;&lt;li&gt;&lt;strong&gt;Structured Data&lt;/strong&gt;:&lt;ul&gt;&lt;li&gt;Organized data, often from databases or relational sources.&lt;/li&gt;&lt;/ul&gt;&lt;/li&gt;&lt;li&gt;&lt;strong&gt;Semi-Structured Data&lt;/strong&gt;:&lt;ul&gt;&lt;li&gt;Data with some organizational structure, such as JSON or XML files.&lt;/li&gt;&lt;/ul&gt;&lt;/li&gt;&lt;li&gt;&lt;strong&gt;Unstructured Data&lt;/strong&gt;:&lt;ul&gt;&lt;li&gt;Raw data, including text, audio, and video files, without a predefined structure.&lt;/li&gt;&lt;/ul&gt;&lt;/li&gt;&lt;/ul&gt;&lt;h4&gt;3. &lt;strong&gt;Data Consumption and Processing&lt;/strong&gt;&lt;/h4&gt;&lt;ul&gt;&lt;li&gt;&lt;strong&gt;Big Data Processing Tools&lt;/strong&gt;:&lt;ul&gt;&lt;li&gt;Technologies like &lt;strong&gt;Apache Spark&lt;/strong&gt; are commonly used to process and analyze data stored in data lakes.&lt;/li&gt;&lt;/ul&gt;&lt;/li&gt;&lt;li&gt;&lt;strong&gt;Flexible Data Consumption&lt;/strong&gt;:&lt;ul&gt;&lt;li&gt;Supports multiple types of big data applications by allowing various types of data to be accessed directly from the lake.&lt;/li&gt;&lt;/ul&gt;&lt;/li&gt;&lt;/ul&gt;" style="text;whiteSpace=wrap;html=1;" vertex="1" parent="1">
          <mxGeometry x="80" y="4130" width="560" height="450" as="geometry" />
        </mxCell>
        <mxCell id="M7AG7lGxA6wFCGQZ4ymq-6" value="Data Lakes" style="swimlane;fontStyle=0;childLayout=stackLayout;horizontal=1;startSize=30;horizontalStack=0;resizeParent=1;resizeParentMax=0;resizeLast=0;collapsible=1;marginBottom=0;whiteSpace=wrap;html=1;" vertex="1" parent="1">
          <mxGeometry x="85" y="4730" width="140" height="120" as="geometry" />
        </mxCell>
        <mxCell id="M7AG7lGxA6wFCGQZ4ymq-7" value="Item 1" style="text;strokeColor=none;fillColor=none;align=left;verticalAlign=middle;spacingLeft=4;spacingRight=4;overflow=hidden;points=[[0,0.5],[1,0.5]];portConstraint=eastwest;rotatable=0;whiteSpace=wrap;html=1;" vertex="1" parent="M7AG7lGxA6wFCGQZ4ymq-6">
          <mxGeometry y="30" width="140" height="30" as="geometry" />
        </mxCell>
        <mxCell id="M7AG7lGxA6wFCGQZ4ymq-8" value="Item 2" style="text;strokeColor=none;fillColor=none;align=left;verticalAlign=middle;spacingLeft=4;spacingRight=4;overflow=hidden;points=[[0,0.5],[1,0.5]];portConstraint=eastwest;rotatable=0;whiteSpace=wrap;html=1;" vertex="1" parent="M7AG7lGxA6wFCGQZ4ymq-6">
          <mxGeometry y="60" width="140" height="30" as="geometry" />
        </mxCell>
        <mxCell id="M7AG7lGxA6wFCGQZ4ymq-9" value="Item 3" style="text;strokeColor=none;fillColor=none;align=left;verticalAlign=middle;spacingLeft=4;spacingRight=4;overflow=hidden;points=[[0,0.5],[1,0.5]];portConstraint=eastwest;rotatable=0;whiteSpace=wrap;html=1;" vertex="1" parent="M7AG7lGxA6wFCGQZ4ymq-6">
          <mxGeometry y="90" width="140" height="30" as="geometry" />
        </mxCell>
      </root>
    </mxGraphModel>
  </diagram>
</mxfile>
